<svg id="Capa_1" enable-background="new 0 0 512 512" height="512" viewBox="0 0 512 512" width="512" xmlns="http://www.w3.org/2000/svg"><g><path d="m324.75 0-98.12 291.79h-226.63v-291.79z" fill="#c68ef4"/><path d="m324.75 0-98.12 291.79h-90.06v-291.79z" fill="#b574f1"/><path d="m512 220.21v291.79h-325.75l98.12-291.79z" fill="#ffda44"/><path d="m385.83 220.21h126.17v291.79h-126.17z" fill="#ffb655"/><path d="m136.57 190.97 10 13.073-10 16.927h-24.6l-23.55-147.49 29.67-4.42z" fill="#f3f1f4"/><path d="m375.58 322.37v30.67h50.51v90.66h-80.51v-30h50.51v-30.66h-50.51v-90.67h80.51v30z" fill="#f3f1f4"/><g fill="#dfdce0"><path d="m185.8 73.6-24.63 147.37h-24.6v-30l19.59-122.04z"/><path d="m385.83 292.37h40.26v30h-40.26z"/><path d="m385.83 353.04h40.26v90.66h-40.26v-30h10.26v-30.66h-10.26z"/></g></g></svg>