<?xml version="1.0" encoding="UTF-8"?>
<!DOCTYPE svg PUBLIC "-//W3C//DTD SVG 1.1//EN" "http://www.w3.org/Graphics/SVG/1.1/DTD/svg11.dtd">
<svg xmlns="http://www.w3.org/2000/svg" version="1.1" width="512px" height="512px" style="shape-rendering:geometricPrecision; text-rendering:geometricPrecision; image-rendering:optimizeQuality; fill-rule:evenodd; clip-rule:evenodd" xmlns:xlink="http://www.w3.org/1999/xlink">
<g><path style="opacity:1" fill="#000000" d="M 277.5,-0.5 C 306.833,-0.5 336.167,-0.5 365.5,-0.5C 365.5,156.167 365.5,312.833 365.5,469.5C 336.167,469.5 306.833,469.5 277.5,469.5C 277.5,312.833 277.5,156.167 277.5,-0.5 Z"/></g>
<g><path style="opacity:1" fill="#282828" d="M 314.5,27.5 C 317.505,27.6732 319.505,29.1732 320.5,32C 319.807,36.8098 319.307,41.6431 319,46.5C 318.5,47 318,47.5 317.5,48C 319.229,49.7889 319.896,51.9556 319.5,54.5C 315.653,55.0198 311.653,55.0198 307.5,54.5C 307.201,56.604 307.534,58.604 308.5,60.5C 311.413,59.7299 314.247,58.7299 317,57.5C 318.559,58.0294 320.059,58.696 321.5,59.5C 322.499,49.5222 322.832,39.5222 322.5,29.5C 326.025,29.7854 329.358,29.1187 332.5,27.5C 334.187,27.7605 335.687,28.4272 337,29.5C 336.377,38.838 336.377,48.1713 337,57.5C 331.809,61.8253 328.976,60.492 328.5,53.5C 329.5,53.5 330.5,53.5 331.5,53.5C 330.913,46.7091 330.579,40.0424 330.5,33.5C 329.167,33.5 327.833,33.5 326.5,33.5C 326.667,45.1714 326.5,56.8381 326,68.5C 324.035,69.885 322.202,69.7184 320.5,68C 320.854,66.3745 320.854,64.5412 320.5,62.5C 316.312,63.1129 311.979,63.1129 307.5,62.5C 307.326,64.861 306.993,67.1944 306.5,69.5C 305.167,69.5 303.833,69.5 302.5,69.5C 302.288,56.1629 301.954,42.8296 301.5,29.5C 303.5,29.1667 305.5,28.8333 307.5,28.5C 307.244,26.2075 307.577,24.0408 308.5,22C 310.35,22.5948 312.35,23.0948 314.5,23.5C 314.5,24.8333 314.5,26.1667 314.5,27.5 Z"/></g>
<g><path style="opacity:1" fill="#070707" d="M 314.5,27.5 C 314.27,29.9828 313.603,30.4828 312.5,29C 312.836,27.9701 313.503,27.4701 314.5,27.5 Z"/></g>
<g><path style="opacity:1" fill="#040404" d="M 309.5,31.5 C 313.485,31.4399 315.152,33.4399 314.5,37.5C 311.833,37.5 309.167,37.5 306.5,37.5C 306.5,36.1667 306.5,34.8333 306.5,33.5C 308.179,33.7148 309.179,33.0481 309.5,31.5 Z"/></g>
<g><path style="opacity:1" fill="#010101" d="M 307.5,39.5 C 309.527,39.3379 311.527,39.5045 313.5,40C 314.815,41.3946 314.481,42.3946 312.5,43C 310.833,43.6667 309.167,43.6667 307.5,43C 306.316,41.8545 306.316,40.6879 307.5,39.5 Z"/></g>
<g><path style="opacity:1" fill="#000000" d="M 230.5,511.5 C 201.167,511.5 171.833,511.5 142.5,511.5C 142.5,354.833 142.5,198.167 142.5,41.5C 171.833,41.5 201.167,41.5 230.5,41.5C 230.5,198.167 230.5,354.833 230.5,511.5 Z"/></g>
<g><path style="opacity:1" fill="#030303" d="M 307.5,46.5 C 309.527,46.3379 311.527,46.5045 313.5,47C 314.554,48.3876 314.72,49.8876 314,51.5C 308.1,54.0009 305.933,52.3342 307.5,46.5 Z"/></g>
<g><path style="opacity:1" fill="#272727" d="M 325.5,73.5 C 328.917,74.0446 331.917,75.3779 334.5,77.5C 334.192,78.3081 333.692,78.9747 333,79.5C 332.495,86.5387 332.495,93.5387 333,100.5C 330.925,102.648 328.592,102.982 326,101.5C 325.219,104.834 324.886,108.167 325,111.5C 332.442,114.677 336.442,112.344 337,104.5C 338.011,103.663 339.178,103.33 340.5,103.5C 339.231,108.041 339.231,112.374 340.5,116.5C 339.692,116.808 339.025,117.308 338.5,118C 332.584,118.807 326.75,118.641 321,117.5C 320.829,112.136 320.329,106.802 319.5,101.5C 317.541,104.171 316.041,107.171 315,110.5C 310.276,115.111 304.776,117.944 298.5,119C 297.833,118.333 297.167,117.667 296.5,117C 300.217,114.475 304.217,112.475 308.5,111C 310.219,109.13 311.219,106.963 311.5,104.5C 309.833,104.5 308.167,104.5 306.5,104.5C 307.424,94.5393 307.758,84.5393 307.5,74.5C 311.318,74.9092 315.152,75.2425 319,75.5C 321.61,75.4668 323.777,74.8001 325.5,73.5 Z"/></g>
<g><path style="opacity:1" fill="#030303" d="M 312.5,78.5 C 317.119,79.3136 321.786,79.6469 326.5,79.5C 326.793,83.4367 326.46,87.27 325.5,91C 321.179,91.499 316.846,91.6657 312.5,91.5C 312.5,87.1667 312.5,82.8333 312.5,78.5 Z"/></g>
<g><path style="opacity:1" fill="#262626" d="M 316.5,82.5 C 318.857,82.3367 321.19,82.5034 323.5,83C 324.711,84.1131 324.711,85.2798 323.5,86.5C 319.85,88.2239 316.85,87.5573 314.5,84.5C 315.243,83.8182 315.909,83.1515 316.5,82.5 Z"/></g>
<g><path style="opacity:1" fill="#000000" d="M 312.5,93.5 C 317.167,93.5 321.833,93.5 326.5,93.5C 326.33,94.8221 326.663,95.9887 327.5,97C 322.511,97.4993 317.511,97.6659 312.5,97.5C 312.5,96.1667 312.5,94.8333 312.5,93.5 Z"/></g>
<g><path style="opacity:1" fill="#000000" d="M 18.5,120.5 C 47.8333,120.5 77.1667,120.5 106.5,120.5C 106.5,210.5 106.5,300.5 106.5,390.5C 77.1667,390.5 47.8333,390.5 18.5,390.5C 18.5,300.5 18.5,210.5 18.5,120.5 Z"/></g>
<g><path style="opacity:1" fill="#000000" d="M 401.5,120.5 C 430.833,120.5 460.167,120.5 489.5,120.5C 489.5,210.5 489.5,300.5 489.5,390.5C 460.167,390.5 430.833,390.5 401.5,390.5C 401.5,300.5 401.5,210.5 401.5,120.5 Z"/></g>
<g><path style="opacity:1" fill="#282828" d="M 321.5,163.5 C 321.443,164.609 321.11,165.609 320.5,166.5C 319.614,167.776 318.614,167.776 317.5,166.5C 316.343,164.322 315.01,162.322 313.5,160.5C 312.833,161.5 312.167,162.5 311.5,163.5C 308.827,164.501 306.493,166.001 304.5,168C 302.527,168.495 300.527,168.662 298.5,168.5C 298.238,167.022 298.571,165.689 299.5,164.5C 303.887,163.642 307.22,161.309 309.5,157.5C 309.167,157.167 308.833,156.833 308.5,156.5C 306.073,159.29 304.073,159.124 302.5,156C 304.907,150.808 306.24,145.308 306.5,139.5C 301.213,140.862 298.546,138.862 298.5,133.5C 301.583,134.066 304.583,134.066 307.5,133.5C 308.487,130.232 308.82,126.898 308.5,123.5C 310.833,123.5 313.167,123.5 315.5,123.5C 315.926,126.92 314.926,129.753 312.5,132C 312.833,132.833 313.167,133.667 313.5,134.5C 315.132,133.703 316.632,132.703 318,131.5C 318.873,131.735 319.707,132.069 320.5,132.5C 321.657,135.784 321.824,139.118 321,142.5C 319.412,146.667 318.245,151.001 317.5,155.5C 318.137,157.303 319.303,158.636 321,159.5C 321.49,160.793 321.657,162.127 321.5,163.5 Z"/></g>
<g><path style="opacity:1" fill="#282828" d="M 322.5,168.5 C 323.651,162.682 323.651,157.015 322.5,151.5C 322.5,144.833 322.5,138.167 322.5,131.5C 326.5,132.5 330.5,133.5 334.5,134.5C 334.281,133.325 334.614,132.325 335.5,131.5C 339.648,131.441 341.982,133.441 342.5,137.5C 341.758,138.287 340.925,138.953 340,139.5C 339.5,148.16 339.334,156.827 339.5,165.5C 337.856,165.286 336.356,165.62 335,166.5C 333.108,165.383 332.275,163.716 332.5,161.5C 330.856,161.286 329.356,161.62 328,162.5C 328.592,166.898 326.759,168.898 322.5,168.5 Z"/></g>
<g><path style="opacity:1" fill="#010101" d="M 312.5,137.5 C 313.5,137.5 314.5,137.5 315.5,137.5C 314.671,142.453 314.337,147.453 314.5,152.5C 312.801,152.66 311.134,152.494 309.5,152C 309.741,147.176 310.741,142.343 312.5,137.5 Z"/></g>
<g><path style="opacity:1" fill="#000000" d="M 327.5,137.5 C 330.044,137.104 332.211,137.771 334,139.5C 334.5,145.825 334.666,152.158 334.5,158.5C 332.139,158.326 329.806,157.993 327.5,157.5C 327.688,150.666 327.688,143.999 327.5,137.5 Z"/></g>
<g><path style="opacity:1" fill="#282828" d="M 447.5,139.5 C 449.167,139.5 450.833,139.5 452.5,139.5C 452.5,142.167 452.5,144.833 452.5,147.5C 455.3,147.111 457.967,146.611 460.5,146C 463.125,148.196 464.125,151.03 463.5,154.5C 459.651,154.019 457.651,155.686 457.5,159.5C 458.5,159.5 459.5,159.5 460.5,159.5C 460.66,161.199 460.494,162.866 460,164.5C 458.283,167.791 456.117,170.791 453.5,173.5C 456.319,176.91 459.986,178.743 464.5,179C 467.064,180.481 467.064,181.981 464.5,183.5C 462.12,182.233 459.954,182.566 458,184.5C 456.775,184.138 455.609,183.638 454.5,183C 453.378,180.876 451.878,179.043 450,177.5C 444.058,183.581 436.891,185.581 428.5,183.5C 427.753,179.862 427.086,176.195 426.5,172.5C 428.594,168.816 430.261,164.983 431.5,161C 430.207,160.51 428.873,160.343 427.5,160.5C 426.587,157.394 425.754,154.394 425,151.5C 427,152.167 429,152.833 431,153.5C 431.54,161.399 432.374,161.399 433.5,153.5C 434.5,153.5 435.5,153.5 436.5,153.5C 435.58,159.788 434.247,165.955 432.5,172C 432.265,174.394 432.765,176.894 434,179.5C 436.84,173.988 438.673,168.154 439.5,162C 439.072,158.793 439.072,155.793 439.5,153C 437.722,150.865 437.055,148.365 437.5,145.5C 440.789,146.374 444.123,147.041 447.5,147.5C 447.5,144.833 447.5,142.167 447.5,139.5 Z"/></g>
<g><path style="opacity:1" fill="#282828" d="M 427.5,140.5 C 434.21,139.644 436.543,142.31 434.5,148.5C 433.264,149.246 431.93,149.579 430.5,149.5C 429.241,146.634 428.241,143.634 427.5,140.5 Z"/></g>
<g><path style="opacity:1" fill="#020202" d="M 444.5,149.5 C 446.124,149.36 447.29,150.027 448,151.5C 448.044,154.475 447.877,157.475 447.5,160.5C 445.876,160.64 444.71,159.973 444,158.5C 443.505,155.469 443.671,152.469 444.5,149.5 Z"/></g>
<g><path style="opacity:1" fill="#010101" d="M 452.5,149.5 C 453.833,149.5 455.167,149.5 456.5,149.5C 456.664,152.187 456.497,154.854 456,157.5C 455.311,158.357 454.478,159.023 453.5,159.5C 452.194,156.08 451.86,152.746 452.5,149.5 Z"/></g>
<g><path style="opacity:1" fill="#171717" d="M 322.5,151.5 C 323.651,157.015 323.651,162.682 322.5,168.5C 321.833,167.833 321.167,167.167 320.5,166.5C 321.11,165.609 321.443,164.609 321.5,163.5C 322.483,159.702 322.817,155.702 322.5,151.5 Z"/></g>
<g><path style="opacity:1" fill="#040404" d="M 448.5,161.5 C 450.167,161.5 451.833,161.5 453.5,161.5C 453.494,164.85 452.494,167.85 450.5,170.5C 449.881,167.968 448.881,165.635 447.5,163.5C 447.863,162.817 448.196,162.15 448.5,161.5 Z"/></g>
<g><path style="opacity:1" fill="#020202" d="M 443.5,163.5 C 446.734,166.719 447.901,170.719 447,175.5C 444.411,177.211 441.911,179.045 439.5,181C 438.167,181.667 436.833,181.667 435.5,181C 441.35,176.706 444.017,170.872 443.5,163.5 Z"/></g>
<g><path style="opacity:1" fill="#282828" d="M 317.5,173.5 C 324.758,172.725 326.758,175.392 323.5,181.5C 328.456,183.225 332.956,182.559 337,179.5C 338.3,180.707 339.8,181.374 341.5,181.5C 341.938,185.908 339.938,187.575 335.5,186.5C 335.297,188.638 334.297,190.305 332.5,191.5C 335.877,192.345 338.21,194.345 339.5,197.5C 338.278,200.089 336.278,200.923 333.5,200C 331.158,194.011 328.825,194.011 326.5,200C 328.667,202.833 331.167,205.333 334,207.5C 337.137,208.361 340.303,209.027 343.5,209.5C 343.5,210.833 343.5,212.167 343.5,213.5C 340.797,213.955 338.13,214.622 335.5,215.5C 329.837,212.37 326.003,207.703 324,201.5C 323.291,205.868 323.458,210.201 324.5,214.5C 323.999,216.851 322.499,218.184 320,218.5C 318.268,218.266 317.434,217.266 317.5,215.5C 319.125,212.765 319.792,209.765 319.5,206.5C 318.022,206.238 316.689,206.571 315.5,207.5C 310.375,212.989 304.042,215.989 296.5,216.5C 296.33,215.178 296.663,214.011 297.5,213C 305.109,211.388 311.109,207.388 315.5,201C 313.359,199.85 311.526,198.35 310,196.5C 307.638,197.363 306.138,199.03 305.5,201.5C 303.018,203.344 300.351,204.677 297.5,205.5C 297.351,204.448 297.517,203.448 298,202.5C 301.086,199.483 304.086,196.483 307,193.5C 307.662,191.187 308.162,188.854 308.5,186.5C 305.428,186.817 302.428,186.484 299.5,185.5C 298.319,183.802 298.319,182.135 299.5,180.5C 302.469,181.738 305.636,182.405 309,182.5C 311.833,182.333 314.667,182.167 317.5,182C 317.395,179.175 317.395,176.342 317.5,173.5 Z"/></g>
<g><path style="opacity:1" fill="#292929" d="M 44.5,180.5 C 48.8197,181.498 53.153,181.665 57.5,181C 59.8743,183.197 59.8743,185.53 57.5,188C 59.6242,194.396 59.9575,200.896 58.5,207.5C 56.9291,208.309 55.2624,208.643 53.5,208.5C 52.7046,203.532 50.8712,203.199 48,207.5C 47.5034,209.81 47.3367,212.143 47.5,214.5C 43.2594,215.091 41.5927,213.258 42.5,209C 43.0917,199.466 43.7584,189.966 44.5,180.5 Z"/></g>
<g><path style="opacity:1" fill="#272727" d="M 73.5,179.5 C 76.4678,179.626 78.4678,181.126 79.5,184C 78.8492,187.918 78.5159,191.918 78.5,196C 78.4135,202.959 79.0802,209.626 80.5,216C 76.7679,223.08 72.7679,223.246 68.5,216.5C 70.1932,215.772 71.6932,214.772 73,213.5C 73.8214,210.446 73.6548,207.446 72.5,204.5C 70.556,205.189 68.556,205.689 66.5,206C 65.0486,209.474 63.5486,212.974 62,216.5C 58.5806,219.751 54.7473,222.418 50.5,224.5C 48.8987,223.965 48.3987,222.965 49,221.5C 54.3367,218.996 58.17,214.996 60.5,209.5C 61.9734,199.811 62.3067,190.144 61.5,180.5C 64.3743,180.451 67.2077,180.784 70,181.5C 71.6991,181.613 72.8658,180.947 73.5,179.5 Z"/></g>
<g><path style="opacity:1" fill="#020202" d="M 66.5,184.5 C 72.9049,183.406 75.2382,186.073 73.5,192.5C 71.1944,192.007 68.861,191.674 66.5,191.5C 66.5,189.167 66.5,186.833 66.5,184.5 Z"/></g>
<g><path style="opacity:1" fill="#030303" d="M 313.5,184.5 C 315.167,184.5 316.833,184.5 318.5,184.5C 318.5,188.5 318.5,192.5 318.5,196.5C 313.574,195.254 312.574,192.588 315.5,188.5C 314.37,187.378 313.703,186.044 313.5,184.5 Z"/></g>
<g><path style="opacity:1" fill="#010101" d="M 324.5,184.5 C 326.75,184.951 328.084,186.285 328.5,188.5C 328.114,191.67 326.78,194.337 324.5,196.5C 323.235,192.454 323.235,188.454 324.5,184.5 Z"/></g>
<g><path style="opacity:1" fill="#282828" d="M 459.5,203.5 C 458.188,204.812 456.854,206.146 455.5,207.5C 457.095,208.044 458.429,207.377 459.5,205.5C 464.158,204.477 466.492,206.477 466.5,211.5C 464.801,211.34 463.134,211.506 461.5,212C 463.635,212.759 464.968,214.259 465.5,216.5C 462.346,218.026 459.013,218.693 455.5,218.5C 455.281,219.675 455.614,220.675 456.5,221.5C 460.984,218.097 463.317,219.097 463.5,224.5C 461.167,224.5 458.833,224.5 456.5,224.5C 456.201,226.604 456.534,228.604 457.5,230.5C 462.696,224.737 465.696,225.737 466.5,233.5C 460.463,233.171 454.463,233.504 448.5,234.5C 448.291,235.086 447.957,235.586 447.5,236C 445.527,236.495 443.527,236.662 441.5,236.5C 442.334,229.164 442.834,221.831 443,214.5C 441.245,219.631 440.079,224.965 439.5,230.5C 438.893,230.376 438.56,230.043 438.5,229.5C 438.785,227.712 438.452,226.045 437.5,224.5C 436.513,227.768 436.18,231.102 436.5,234.5C 435.18,235.942 433.514,236.608 431.5,236.5C 432.112,232.837 432.279,229.17 432,225.5C 429.331,228.889 426.664,232.223 424,235.5C 423.13,234.892 422.63,234.059 422.5,233C 423.673,229.695 425.006,226.529 426.5,223.5C 425.077,220.725 424.411,217.725 424.5,214.5C 426.484,214.383 428.15,215.05 429.5,216.5C 430.308,216.192 430.975,215.692 431.5,215C 428.601,212.461 426.934,209.294 426.5,205.5C 428.288,205.785 429.955,205.452 431.5,204.5C 430.311,203.571 428.978,203.238 427.5,203.5C 427.5,198.5 427.5,193.5 427.5,188.5C 434.894,189.366 442.061,190.699 449,192.5C 452.442,190.228 456.275,189.395 460.5,190C 463.311,194.725 462.978,199.225 459.5,203.5 Z"/></g>
<g><path style="opacity:1" fill="#060606" d="M 51.5,195.5 C 52.3686,197.717 52.702,200.05 52.5,202.5C 51.4324,203.434 50.099,203.768 48.5,203.5C 48.3272,197.512 48.1606,191.512 48,185.5C 51.4471,183.647 53.2805,184.647 53.5,188.5C 53.0463,190.694 52.0463,192.527 50.5,194C 50.5699,194.765 50.9033,195.265 51.5,195.5 Z"/></g>
<g><path style="opacity:1" fill="#020202" d="M 66.5,194.5 C 72.3964,193.848 74.7297,196.515 73.5,202.5C 71.1667,202.5 68.8333,202.5 66.5,202.5C 66.5,199.833 66.5,197.167 66.5,194.5 Z"/></g>
<g><path style="opacity:1" fill="#000000" d="M 433.5,194.5 C 436.5,194.167 437.833,195.5 437.5,198.5C 436.167,198.5 434.833,198.5 433.5,198.5C 433.5,197.167 433.5,195.833 433.5,194.5 Z"/></g>
<g><path style="opacity:1" fill="#040404" d="M 451.5,194.5 C 452.833,194.5 454.167,194.5 455.5,194.5C 455.5,196.167 455.5,197.833 455.5,199.5C 451.715,199.411 450.381,197.744 451.5,194.5 Z"/></g>
<g><path style="opacity:1" fill="#272727" d="M 176.5,195.5 C 179.321,195.539 181.988,196.205 184.5,197.5C 183.752,199.332 182.752,200.999 181.5,202.5C 184.833,203.833 188.167,203.833 191.5,202.5C 189.896,200.821 189.229,198.821 189.5,196.5C 191.827,196.665 193.993,197.331 196,198.5C 196.711,200.367 196.211,201.867 194.5,203C 197.742,203.986 200.408,203.152 202.5,200.5C 205.996,201.06 207.663,203.06 207.5,206.5C 203.5,206.5 199.5,206.5 195.5,206.5C 196.926,212.359 194.926,214.359 189.5,212.5C 188.354,213.145 187.354,213.978 186.5,215C 191.861,215.182 197.027,214.349 202,212.5C 205.706,212.909 207.539,214.909 207.5,218.5C 199.493,218.334 191.493,218.5 183.5,219C 182.027,219.71 181.36,220.876 181.5,222.5C 187.028,223 192.362,222.333 197.5,220.5C 198.5,221.167 199.5,221.833 200.5,222.5C 201.662,227.467 201.829,232.467 201,237.5C 200.044,238.894 198.711,239.561 197,239.5C 192.825,238.874 188.658,238.207 184.5,237.5C 182.293,239.514 179.627,240.514 176.5,240.5C 176.654,235.985 176.654,231.652 176.5,227.5C 173.388,230.698 170.055,233.698 166.5,236.5C 165.369,234.926 165.202,233.259 166,231.5C 169.436,230.397 171.436,228.064 172,224.5C 178.175,221.205 177.675,218.871 170.5,217.5C 166.255,220.289 164.589,218.956 165.5,213.5C 170.119,214.658 174.785,215.158 179.5,215C 182.222,213.728 183.556,211.561 183.5,208.5C 185.937,208.756 188.271,209.423 190.5,210.5C 191.823,208.796 191.49,207.463 189.5,206.5C 188.167,207.833 186.833,207.833 185.5,206.5C 182.668,207.496 181.335,209.496 181.5,212.5C 180.167,212.5 178.833,212.5 177.5,212.5C 177.5,210.833 177.5,209.167 177.5,207.5C 173.5,207.5 169.5,207.5 165.5,207.5C 165.5,205.833 165.5,204.167 165.5,202.5C 169.534,202.505 173.534,202.838 177.5,203.5C 177.167,200.833 176.833,198.167 176.5,195.5 Z"/></g>
<g><path style="opacity:1" fill="#171717" d="M 51.5,195.5 C 52.7251,196.152 53.3917,197.319 53.5,199C 53.4857,200.385 53.1524,201.551 52.5,202.5C 52.702,200.05 52.3686,197.717 51.5,195.5 Z"/></g>
<g><path style="opacity:1" fill="#060606" d="M 441.5,194.5 C 443.665,194.116 445.332,194.783 446.5,196.5C 444.074,200.813 442.24,205.48 441,210.5C 439.279,207.377 438.112,204.044 437.5,200.5C 438.833,200.5 440.167,200.5 441.5,200.5C 441.5,198.5 441.5,196.5 441.5,194.5 Z"/></g>
<g><path style="opacity:1" fill="#090909" d="M 449.5,200.5 C 450.5,200.5 451.5,200.5 452.5,200.5C 453.124,204.005 452.124,206.838 449.5,209C 449.653,213.486 449.653,217.986 449.5,222.5C 452.263,225.421 452.096,228.087 449,230.5C 447.835,223.356 447.335,216.19 447.5,209C 448.104,206.113 448.771,203.28 449.5,200.5 Z"/></g>
<g><path style="opacity:1" fill="#191919" d="M 459.5,203.5 C 459.5,204.167 459.5,204.833 459.5,205.5C 458.429,207.377 457.095,208.044 455.5,207.5C 456.854,206.146 458.188,204.812 459.5,203.5 Z"/></g>
<g><path style="opacity:1" fill="#030303" d="M 434.5,206.5 C 435.621,208.089 435.454,209.756 434,211.5C 433.36,209.735 433.527,208.068 434.5,206.5 Z"/></g>
<g><path style="opacity:1" fill="#020202" d="M 456.5,210.5 C 460.128,211.021 460.294,212.355 457,214.5C 456.5,214.167 456,213.833 455.5,213.5C 456.127,212.583 456.461,211.583 456.5,210.5 Z"/></g>
<g><path style="opacity:1" fill="#010101" d="M 194.5,227.5 C 194.5,229.833 194.5,232.167 194.5,234.5C 192.5,234.5 190.5,234.5 188.5,234.5C 186.167,234.5 183.833,234.5 181.5,234.5C 181.095,230.952 181.595,227.619 183,224.5C 187.214,224.827 191.048,225.827 194.5,227.5 Z"/></g>
<g><path style="opacity:1" fill="#171717" d="M 438.5,229.5 C 437.833,231.167 437.167,232.833 436.5,234.5C 436.18,231.102 436.513,227.768 437.5,224.5C 438.452,226.045 438.785,227.712 438.5,229.5 Z"/></g>
<g><path style="opacity:1" fill="#1f1f1f" d="M 194.5,227.5 C 195.473,229.948 195.806,232.615 195.5,235.5C 192.941,235.802 190.607,235.468 188.5,234.5C 190.5,234.5 192.5,234.5 194.5,234.5C 194.5,232.167 194.5,229.833 194.5,227.5 Z"/></g>
<g><path style="opacity:1" fill="#292929" d="M 49.5,228.5 C 53.8875,228.8 58.0542,229.8 62,231.5C 63.1667,231.333 64.3333,231.167 65.5,231C 67.6851,227.98 70.1851,227.814 73,230.5C 72.3841,243.826 72.3841,257.159 73,270.5C 71.4749,273.087 69.3083,273.92 66.5,273C 65.2713,271.471 63.7713,270.304 62,269.5C 61.5172,268.552 61.3505,267.552 61.5,266.5C 63.4672,266.739 65.3005,266.406 67,265.5C 67.498,262.518 67.6646,259.518 67.5,256.5C 63.5656,256.979 59.8989,256.312 56.5,254.5C 55.6732,259.154 54.0066,263.487 51.5,267.5C 49.2588,269.452 47.2588,271.618 45.5,274C 44.2068,274.49 42.8734,274.657 41.5,274.5C 41.4419,269.375 43.9419,266.042 49,264.5C 50.6438,256.924 51.4771,249.257 51.5,241.5C 51.3685,236.989 50.7019,232.656 49.5,228.5 Z"/></g>
<g><path style="opacity:1" fill="#050505" d="M 56.5,235.5 C 60.1667,235.5 63.8333,235.5 67.5,235.5C 67.8076,237.924 67.4742,240.257 66.5,242.5C 63.2423,241.583 59.909,241.249 56.5,241.5C 56.5,239.5 56.5,237.5 56.5,235.5 Z"/></g>
<g><path style="opacity:1" fill="#282828" d="M 442.5,248.5 C 442.177,252.226 442.511,255.893 443.5,259.5C 444.107,259.376 444.44,259.043 444.5,258.5C 446.275,252.173 447.941,245.839 449.5,239.5C 451.861,239.674 454.194,240.007 456.5,240.5C 454.758,243.607 453.425,246.941 452.5,250.5C 454.527,250.662 456.527,250.495 458.5,250C 462.108,246.634 465.275,247.134 468,251.5C 468.684,252.784 468.517,253.951 467.5,255C 456.586,258.579 454.586,265.079 461.5,274.5C 465.037,276.687 467.37,279.687 468.5,283.5C 465.262,284.395 462.095,284.395 459,283.5C 456.205,278.51 454.205,273.176 453,267.5C 451.772,276.391 447.105,282.725 439,286.5C 437.005,284.77 434.838,283.437 432.5,282.5C 432.5,281.5 432.5,280.5 432.5,279.5C 434.467,279.739 436.301,279.406 438,278.5C 438.781,273.446 438.614,268.446 437.5,263.5C 435.997,262.948 434.331,262.948 432.5,263.5C 431.551,262.848 430.385,262.514 429,262.5C 426.992,262.307 425.492,262.974 424.5,264.5C 423.188,263.855 422.188,262.855 421.5,261.5C 426.5,260.833 431.5,260.167 436.5,259.5C 436.808,258.692 437.308,258.025 438,257.5C 438.499,253.179 438.666,248.846 438.5,244.5C 435.15,244.335 431.817,244.502 428.5,245C 430.399,249.178 431.065,253.678 430.5,258.5C 429.167,258.5 427.833,258.5 426.5,258.5C 426.827,253.786 426.493,249.12 425.5,244.5C 423.889,243.68 423.222,242.346 423.5,240.5C 427.673,240.691 431.84,241.024 436,241.5C 439.241,241.003 442.408,240.336 445.5,239.5C 445.319,242.784 444.319,245.784 442.5,248.5 Z"/></g>
<g><path style="opacity:1" fill="#020202" d="M 56.5,244.5 C 60.5475,244.84 64.5475,245.506 68.5,246.5C 67.6698,248.135 67.5031,249.802 68,251.5C 64.2564,252.626 60.423,252.793 56.5,252C 55.2215,249.502 55.2215,247.002 56.5,244.5 Z"/></g>
<g><path style="opacity:1" fill="#272727" d="M 191.5,245.5 C 194.917,246.045 197.917,247.378 200.5,249.5C 200.192,250.308 199.692,250.975 199,251.5C 198.495,258.539 198.495,265.539 199,272.5C 196.925,274.648 194.592,274.982 192,273.5C 191.219,276.834 190.886,280.167 191,283.5C 198.442,286.677 202.442,284.344 203,276.5C 204.011,275.663 205.178,275.33 206.5,275.5C 205.231,280.041 205.231,284.374 206.5,288.5C 205.692,288.808 205.025,289.308 204.5,290C 198.584,290.807 192.75,290.641 187,289.5C 186.829,284.136 186.329,278.802 185.5,273.5C 183.541,276.171 182.041,279.171 181,282.5C 176.276,287.111 170.776,289.944 164.5,291C 163.833,290.333 163.167,289.667 162.5,289C 166.217,286.475 170.217,284.475 174.5,283C 176.219,281.13 177.219,278.963 177.5,276.5C 175.833,276.5 174.167,276.5 172.5,276.5C 173.424,266.539 173.758,256.539 173.5,246.5C 177.318,246.909 181.152,247.243 185,247.5C 187.61,247.467 189.777,246.8 191.5,245.5 Z"/></g>
<g><path style="opacity:1" fill="#272727" d="M 432.5,245.5 C 436.319,245.28 437.986,247.113 437.5,251C 437.819,255.313 435.819,257.146 431.5,256.5C 431.244,252.731 431.577,249.064 432.5,245.5 Z"/></g>
<g><path style="opacity:1" fill="#181818" d="M 442.5,248.5 C 443.167,251.833 443.833,255.167 444.5,258.5C 444.44,259.043 444.107,259.376 443.5,259.5C 442.511,255.893 442.177,252.226 442.5,248.5 Z"/></g>
<g><path style="opacity:1" fill="#030303" d="M 178.5,250.5 C 183.119,251.314 187.786,251.647 192.5,251.5C 192.793,255.437 192.46,259.27 191.5,263C 187.179,263.499 182.846,263.666 178.5,263.5C 178.5,259.167 178.5,254.833 178.5,250.5 Z"/></g>
<g><path style="opacity:1" fill="#0d0d0d" d="M 456.5,252.5 C 457.649,252.791 458.316,253.624 458.5,255C 458.167,255.833 457.833,256.667 457.5,257.5C 456.548,255.955 456.215,254.288 456.5,252.5 Z"/></g>
<g><path style="opacity:1" fill="#262626" d="M 182.5,254.5 C 184.857,254.337 187.19,254.503 189.5,255C 190.711,256.113 190.711,257.28 189.5,258.5C 185.85,260.224 182.85,259.557 180.5,256.5C 181.243,255.818 181.909,255.151 182.5,254.5 Z"/></g>
<g><path style="opacity:1" fill="#282828" d="M 427.5,264.5 C 428.458,264.953 429.292,265.619 430,266.5C 432.112,264.078 434.112,264.078 436,266.5C 436.006,268.809 436.172,270.975 436.5,273C 435.879,276.144 434.212,276.978 431.5,275.5C 430.147,277.183 428.48,278.516 426.5,279.5C 425.295,278.423 424.628,277.09 424.5,275.5C 424.875,271.558 425.875,267.891 427.5,264.5 Z"/></g>
<g><path style="opacity:1" fill="#020202" d="M 448.5,253.5 C 449.497,253.47 450.164,253.97 450.5,255C 450.012,262.065 448.512,268.899 446,275.5C 444.76,278.917 443.593,279.083 442.5,276C 443.31,272.208 443.644,268.375 443.5,264.5C 445.167,264.5 446.833,264.5 448.5,264.5C 448.523,262.4 447.856,260.567 446.5,259C 447.856,257.433 448.523,255.6 448.5,253.5 Z"/></g>
<g><path style="opacity:1" fill="#000000" d="M 178.5,265.5 C 183.167,265.5 187.833,265.5 192.5,265.5C 192.33,266.822 192.663,267.989 193.5,269C 188.511,269.499 183.511,269.666 178.5,269.5C 178.5,268.167 178.5,266.833 178.5,265.5 Z"/></g>
<g><path style="opacity:1" fill="#151515" d="M 432.5,263.5 C 430.585,263.216 428.919,263.549 427.5,264.5C 425.875,267.891 424.875,271.558 424.5,275.5C 424.5,271.833 424.5,268.167 424.5,264.5C 425.492,262.974 426.992,262.307 429,262.5C 430.385,262.514 431.551,262.848 432.5,263.5 Z"/></g>
<g><path style="opacity:1" fill="#010201" d="M 429.5,268.5 C 432.957,268.667 433.29,269.667 430.5,271.5C 429.614,270.675 429.281,269.675 429.5,268.5 Z"/></g>
<g><path style="opacity:1" fill="#282828" d="M 50.5,296.5 C 47.3915,296.736 44.3915,296.403 41.5,295.5C 41.5,293.833 41.5,292.167 41.5,290.5C 46.26,292.24 51.26,292.906 56.5,292.5C 56.5,287.833 56.5,283.167 56.5,278.5C 59.4802,278.62 62.3135,279.287 65,280.5C 65.6667,281.833 65.6667,283.167 65,284.5C 62.9987,286.802 62.4987,289.302 63.5,292C 68.6861,291.956 73.6861,291.289 78.5,290C 80.25,291.754 80.9167,293.921 80.5,296.5C 75.57,296.803 70.7367,296.469 66,295.5C 65.8333,296.167 65.6667,296.833 65.5,297.5C 66.4653,301.425 67.9653,305.091 70,308.5C 73.9046,311.398 78.0713,313.898 82.5,316C 83.3802,317.356 83.7135,318.856 83.5,320.5C 82.1266,320.343 80.7932,320.51 79.5,321C 78.6008,322.236 77.4341,323.07 76,323.5C 71.9164,320.694 68.7497,317.027 66.5,312.5C 66.3241,314.672 66.1575,317.005 66,319.5C 64.6124,320.554 63.1124,320.72 61.5,320C 59.9457,317.314 58.6124,314.481 57.5,311.5C 55.7236,313.538 54.0569,315.704 52.5,318C 50.4732,319.879 48.1398,321.046 45.5,321.5C 45.5,322.5 45.5,323.5 45.5,324.5C 44.1667,324.5 42.8333,324.5 41.5,324.5C 41.2148,322.712 41.5481,321.045 42.5,319.5C 50.6579,313.52 55.3246,305.52 56.5,295.5C 54.2646,295.205 52.2646,295.539 50.5,296.5 Z"/></g>
<g><path style="opacity:1" fill="#151515" d="M 41.5,295.5 C 44.3915,296.403 47.3915,296.736 50.5,296.5C 49.2067,297.158 47.7067,297.492 46,297.5C 44.0145,297.431 42.5145,296.765 41.5,295.5 Z"/></g>
<g><path style="opacity:1" fill="#282828" d="M 182.5,310.5 C 184.833,310.5 187.167,310.5 189.5,310.5C 189.737,309.209 189.404,308.209 188.5,307.5C 186.283,306.631 183.95,306.298 181.5,306.5C 181.5,307.5 181.5,308.5 181.5,309.5C 176.435,309.219 171.435,309.552 166.5,310.5C 164.717,309.652 164.217,308.319 165,306.5C 168.795,305.536 172.628,305.37 176.5,306C 177.022,305.439 177.355,304.772 177.5,304C 173.557,301.389 173.557,298.889 177.5,296.5C 179.532,297.551 180.865,299.217 181.5,301.5C 183.409,302.348 185.409,302.682 187.5,302.5C 187.5,300.167 187.5,297.833 187.5,295.5C 189.861,295.674 192.194,296.007 194.5,296.5C 194.302,298.575 194.135,300.575 194,302.5C 195.808,300.442 197.975,300.108 200.5,301.5C 200.215,299.712 200.548,298.045 201.5,296.5C 203.193,298.027 205.027,299.36 207,300.5C 207.695,303.762 206.362,305.762 203,306.5C 202.691,307.766 202.191,308.933 201.5,310C 203.509,309.406 205.509,309.573 207.5,310.5C 208.429,311.689 208.762,313.022 208.5,314.5C 204.762,313.921 201.096,313.921 197.5,314.5C 198.248,316.332 199.248,317.999 200.5,319.5C 206.308,320.617 206.975,323.117 202.5,327C 204.634,331.431 204.301,335.764 201.5,340C 197.775,340.293 194.275,339.46 191,337.5C 189.566,337.93 188.399,338.764 187.5,340C 186.5,340.667 185.5,340.667 184.5,340C 184.07,335.266 184.07,330.433 184.5,325.5C 182.876,325.36 181.71,326.027 181,327.5C 180.962,331.563 180.128,335.397 178.5,339C 176.92,337.691 174.92,336.858 172.5,336.5C 172.826,339.757 171.493,341.257 168.5,341C 167.359,335.25 167.193,329.416 168,323.5C 169.113,322.289 170.28,322.289 171.5,323.5C 172.489,327.107 172.823,330.774 172.5,334.5C 173.822,334.67 174.989,334.337 176,333.5C 176.269,330.357 175.936,327.357 175,324.5C 175.739,323.426 176.739,322.759 178,322.5C 179.333,323.833 180.667,323.833 182,322.5C 185.042,319.723 188.208,317.056 191.5,314.5C 189.667,314.167 187.833,313.833 186,313.5C 179.576,314.966 173.076,315.632 166.5,315.5C 166.33,314.178 166.663,313.011 167.5,312C 172.481,311.252 177.481,310.752 182.5,310.5 Z"/></g>
<g><path style="opacity:1" fill="#272727" d="M 167.5,297.5 C 169.5,297.833 171.5,298.167 173.5,298.5C 172.39,304.096 170.056,304.762 166.5,300.5C 166.685,299.416 167.018,298.416 167.5,297.5 Z"/></g>
<g><path style="opacity:1" fill="#070707" d="M 60.5,298.5 C 62.2043,301.343 63.5377,304.51 64.5,308C 64.3333,308.833 64.1667,309.667 64,310.5C 62.8904,308.963 61.3904,308.297 59.5,308.5C 59.6159,305.14 59.9492,301.807 60.5,298.5 Z"/></g>
<g><path style="opacity:1" fill="#030303" d="M 192.5,307.5 C 193.708,306.218 195.042,306.218 196.5,307.5C 195.094,311.371 193.761,311.371 192.5,307.5 Z"/></g>
<g><path style="opacity:1" fill="#1a1a1a" d="M 188.5,307.5 C 189.404,308.209 189.737,309.209 189.5,310.5C 187.167,310.5 184.833,310.5 182.5,310.5C 184.844,310.06 186.844,309.06 188.5,307.5 Z"/></g>
<g><path style="opacity:1" fill="#252525" d="M 176.5,316.5 C 179.91,316.384 181.244,318.05 180.5,321.5C 176.154,321.666 171.821,321.499 167.5,321C 166.663,319.989 166.33,318.822 166.5,317.5C 168.884,317.443 171.218,317.777 173.5,318.5C 175.038,318.547 176.038,317.88 176.5,316.5 Z"/></g>
<g><path style="opacity:1" fill="#080808" d="M 192.5,318.5 C 193.376,318.369 194.043,318.702 194.5,319.5C 190.467,323.728 189.8,323.395 192.5,318.5 Z"/></g>
<g><path style="opacity:1" fill="#060606" d="M 189.5,323.5 C 191.857,323.337 194.19,323.503 196.5,324C 197.38,325.356 197.714,326.856 197.5,328.5C 195.143,328.663 192.81,328.497 190.5,328C 188.964,326.532 188.63,325.032 189.5,323.5 Z"/></g>
<g><path style="opacity:1" fill="#282828" d="M 58.5,348.5 C 64.3275,348.344 69.9942,348.011 75.5,347.5C 70.4767,346.049 65.4767,345.715 60.5,346.5C 60.8016,343.941 60.4682,341.607 59.5,339.5C 58.5975,336.609 58.2641,333.609 58.5,330.5C 64.5,330.5 70.5,330.5 76.5,330.5C 76.5,335.833 76.5,341.167 76.5,346.5C 82.1838,347.517 83.0171,349.517 79,352.5C 78.5,352 78,351.5 77.5,351C 73.5,350.333 69.5,350.333 65.5,351C 64.6634,352.011 64.33,353.178 64.5,354.5C 67.8835,354.66 71.2169,354.327 74.5,353.5C 76.4594,353.875 78.2927,354.541 80,355.5C 77.8664,359.9 76.3664,364.4 75.5,369C 73.246,369.624 71.5794,370.957 70.5,373C 66.9124,373.611 65.7458,372.111 67,368.5C 68.2051,367.929 69.3717,367.262 70.5,366.5C 71.3052,364.085 72.3052,361.751 73.5,359.5C 70.0185,362.764 66.0185,366.264 61.5,370C 57.6926,372.33 53.6926,372.83 49.5,371.5C 53.4699,369.44 57.4699,367.274 61.5,365C 62.5,364 63.5,363 64.5,362C 64,361.833 63.5,361.667 63,361.5C 60.3444,363.156 57.8444,364.99 55.5,367C 53.8659,367.494 52.1992,367.66 50.5,367.5C 50.4326,364.234 52.0992,362.734 55.5,363C 56.5,362 57.5,361 58.5,360C 55.5609,360.199 52.7276,361.032 50,362.5C 49.7811,361.062 49.2811,359.729 48.5,358.5C 47.6725,362.796 47.1725,367.129 47,371.5C 45.6439,372.38 44.1439,372.714 42.5,372.5C 42.5,368.833 42.5,365.167 42.5,361.5C 43.4944,351.013 43.8278,340.346 43.5,329.5C 44.5,329.5 45.5,329.5 46.5,329.5C 49.6085,329.283 52.7752,329.283 56,329.5C 56.6667,331.167 56.6667,332.833 56,334.5C 53.7661,336.53 51.9327,338.863 50.5,341.5C 51.9517,345.289 54.6183,347.622 58.5,348.5 Z"/></g>
<g><path style="opacity:1" fill="#060606" d="M 189.5,329.5 C 192.068,330.45 194.568,330.45 197,329.5C 198.269,330.905 198.769,332.571 198.5,334.5C 195.482,334.296 192.482,333.963 189.5,333.5C 189.5,332.167 189.5,330.833 189.5,329.5 Z"/></g>
<g><path style="opacity:1" fill="#050505" d="M 47.5,333.5 C 49.2852,338.587 50.2852,344.087 50.5,350C 50.6125,351.662 49.9458,352.829 48.5,353.5C 47.5033,346.866 47.17,340.2 47.5,333.5 Z"/></g>
<g><path style="opacity:1" fill="#030303" d="M 64.5,333.5 C 67.0728,333.148 69.4062,333.648 71.5,335C 71.0153,337.68 70.6819,340.347 70.5,343C 68.8016,342.503 67.1349,342.67 65.5,343.5C 64.513,340.232 64.1796,336.898 64.5,333.5 Z"/></g>
<g><path style="opacity:1" fill="#202020" d="M 66.5,336.5 C 68.337,336.639 68.6704,337.306 67.5,338.5C 66.7025,338.043 66.3691,337.376 66.5,336.5 Z"/></g>
<g><path style="opacity:1" fill="#171717" d="M 46.5,329.5 C 45.5,329.5 44.5,329.5 43.5,329.5C 43.8278,340.346 43.4944,351.013 42.5,361.5C 42.5,350.5 42.5,339.5 42.5,328.5C 44.099,328.232 45.4324,328.566 46.5,329.5 Z"/></g>
<g><path style="opacity:1" fill="#0c0c0c" d="M 59.5,339.5 C 60.4682,341.607 60.8016,343.941 60.5,346.5C 65.4767,345.715 70.4767,346.049 75.5,347.5C 69.9942,348.011 64.3275,348.344 58.5,348.5C 59.4025,345.609 59.7359,342.609 59.5,339.5 Z"/></g>
<g><path style="opacity:1" fill="#282828" d="M 173.5,388.5 C 173.225,381.953 173.558,375.453 174.5,369C 174.167,368.5 173.833,368 173.5,367.5C 172.232,369.304 171.565,371.304 171.5,373.5C 169.354,375.775 167.688,378.442 166.5,381.5C 165.369,379.926 165.202,378.259 166,376.5C 167.935,371.527 169.768,366.527 171.5,361.5C 169.577,360.692 167.577,360.192 165.5,360C 164.663,358.989 164.33,357.822 164.5,356.5C 167.482,356.963 170.482,357.296 173.5,357.5C 173.619,353.653 172.953,349.986 171.5,346.5C 173.792,346.244 175.959,346.577 178,347.5C 177.508,352.449 177.508,357.449 178,362.5C 182.976,363.987 184.809,367.32 183.5,372.5C 180.365,372.452 178.698,370.785 178.5,367.5C 177.544,374.505 177.377,381.505 178,388.5C 176.479,391.046 174.979,391.046 173.5,388.5 Z"/></g>
<g><path style="opacity:1" fill="#272727" d="M 199.5,347.5 C 202.548,348.016 204.882,349.516 206.5,352C 204.072,357.336 203.905,362.836 206,368.5C 206.667,374.833 206.667,381.167 206,387.5C 201.806,390.747 199.64,389.747 199.5,384.5C 196.5,384.5 193.5,384.5 190.5,384.5C 190.822,386.722 190.155,388.556 188.5,390C 187.004,390.507 185.837,390.007 185,388.5C 185.213,378.815 185.047,369.148 184.5,359.5C 182.929,360.309 181.262,360.643 179.5,360.5C 179.34,358.801 179.506,357.134 180,355.5C 181.113,354.289 182.28,354.289 183.5,355.5C 184.474,353.257 184.808,350.924 184.5,348.5C 189.328,350.151 194.328,350.817 199.5,350.5C 199.5,349.5 199.5,348.5 199.5,347.5 Z"/></g>
<g><path style="opacity:1" fill="#080808" d="M 55.5,354.5 C 55.5,353.167 55.5,351.833 55.5,350.5C 59.1654,351.293 59.1654,352.626 55.5,354.5 Z"/></g>
<g><path style="opacity:1" fill="#000000" d="M 189.5,353.5 C 192.518,353.335 195.518,353.502 198.5,354C 199.769,356.139 199.769,358.305 198.5,360.5C 195.223,359.746 191.89,359.246 188.5,359C 189.406,357.301 189.739,355.467 189.5,353.5 Z"/></g>
<g><path style="opacity:1" fill="#131313" d="M 55.5,354.5 C 55.4894,356.686 54.4894,357.519 52.5,357C 53.3734,355.955 54.3734,355.122 55.5,354.5 Z"/></g>
<g><path style="opacity:1" fill="#020202" d="M 189.5,363.5 C 192.833,363.5 196.167,363.5 199.5,363.5C 200.833,365.833 200.833,368.167 199.5,370.5C 196.167,370.5 192.833,370.5 189.5,370.5C 189.5,368.167 189.5,365.833 189.5,363.5 Z"/></g>
<g><path style="opacity:1" fill="#020202" d="M 190.5,372.5 C 193.747,373.252 197.081,373.752 200.5,374C 200.302,376.946 199.802,379.779 199,382.5C 196,381.833 193,381.167 190,380.5C 189.278,377.739 189.445,375.073 190.5,372.5 Z"/></g>
<g><path style="opacity:1" fill="#0b0b0b" d="M 173.5,388.5 C 172.833,383.5 172.167,378.5 171.5,373.5C 171.565,371.304 172.232,369.304 173.5,367.5C 173.833,368 174.167,368.5 174.5,369C 173.558,375.453 173.225,381.953 173.5,388.5 Z"/></g>
<g><path style="opacity:1" fill="#282828" d="M 178.5,395.5 C 183.462,396.36 188.462,396.527 193.5,396C 194.804,396.804 195.471,397.971 195.5,399.5C 194.349,401.325 193.682,403.325 193.5,405.5C 195.604,405.799 197.604,405.466 199.5,404.5C 199.887,403.28 200.72,402.613 202,402.5C 206.641,402.64 208.474,404.973 207.5,409.5C 202.763,409.466 198.263,409.133 194,408.5C 193.505,410.473 193.338,412.473 193.5,414.5C 196.408,414.738 198.742,413.738 200.5,411.5C 204.618,412.185 206.618,414.518 206.5,418.5C 201.786,418.353 197.119,418.686 192.5,419.5C 192.5,421.833 192.5,424.167 192.5,426.5C 196.442,427.143 199.776,426.143 202.5,423.5C 206.696,424.025 208.696,426.359 208.5,430.5C 203.463,430.587 198.463,430.254 193.5,429.5C 193.82,432.898 193.487,436.232 192.5,439.5C 190.929,440.309 189.262,440.643 187.5,440.5C 187.197,435.57 187.531,430.737 188.5,426C 184.221,425.084 182.388,426.917 183,431.5C 179.224,436.115 174.724,439.782 169.5,442.5C 167.833,442.167 166.833,441.167 166.5,439.5C 170.918,437.252 174.584,434.085 177.5,430C 177.333,429.5 177.167,429 177,428.5C 173.333,432.5 169.667,432.5 166,428.5C 165.333,427.5 165.333,426.5 166,425.5C 170.38,425.472 174.88,425.138 179.5,424.5C 179.5,422.833 179.5,421.167 179.5,419.5C 175.486,419.666 171.486,419.499 167.5,419C 166.594,417.301 166.261,415.467 166.5,413.5C 170.785,414.295 175.119,414.628 179.5,414.5C 179.5,412.5 179.5,410.5 179.5,408.5C 175.202,409.2 170.869,409.533 166.5,409.5C 166.5,407.833 166.5,406.167 166.5,404.5C 170.857,404.586 175.19,404.92 179.5,405.5C 179.384,402.14 179.051,398.807 178.5,395.5 Z"/></g>
<g><path style="opacity:1" fill="#060606" d="M 186.5,399.5 C 187.822,402.768 188.489,406.435 188.5,410.5C 188.333,414.167 188.167,417.833 188,421.5C 185.934,424.298 184.434,423.965 183.5,420.5C 184.294,414.217 184.794,407.884 185,401.5C 185.717,400.956 186.217,400.289 186.5,399.5 Z"/></g>
<g><path style="opacity:1" fill="#282828" d="M 173.5,488.5 C 173.225,481.953 173.558,475.453 174.5,469C 174.167,468.5 173.833,468 173.5,467.5C 172.232,469.304 171.565,471.304 171.5,473.5C 169.354,475.775 167.688,478.442 166.5,481.5C 165.369,479.926 165.202,478.259 166,476.5C 167.935,471.527 169.768,466.527 171.5,461.5C 169.577,460.692 167.577,460.192 165.5,460C 164.663,458.989 164.33,457.822 164.5,456.5C 167.482,456.963 170.482,457.296 173.5,457.5C 173.619,453.653 172.953,449.986 171.5,446.5C 173.792,446.244 175.959,446.577 178,447.5C 177.508,452.449 177.508,457.449 178,462.5C 182.976,463.987 184.809,467.32 183.5,472.5C 180.365,472.452 178.698,470.785 178.5,467.5C 177.544,474.505 177.377,481.505 178,488.5C 176.479,491.046 174.979,491.046 173.5,488.5 Z"/></g>
<g><path style="opacity:1" fill="#272727" d="M 199.5,447.5 C 202.548,448.016 204.882,449.516 206.5,452C 204.072,457.336 203.905,462.836 206,468.5C 206.667,474.833 206.667,481.167 206,487.5C 201.806,490.747 199.64,489.747 199.5,484.5C 196.5,484.5 193.5,484.5 190.5,484.5C 190.822,486.722 190.155,488.556 188.5,490C 187.004,490.507 185.837,490.007 185,488.5C 185.213,478.815 185.047,469.148 184.5,459.5C 182.929,460.309 181.262,460.643 179.5,460.5C 179.34,458.801 179.506,457.134 180,455.5C 181.113,454.289 182.28,454.289 183.5,455.5C 184.474,453.257 184.808,450.924 184.5,448.5C 189.328,450.151 194.328,450.817 199.5,450.5C 199.5,449.5 199.5,448.5 199.5,447.5 Z"/></g>
<g><path style="opacity:1" fill="#000000" d="M 189.5,453.5 C 192.518,453.335 195.518,453.502 198.5,454C 199.769,456.139 199.769,458.305 198.5,460.5C 195.223,459.746 191.89,459.246 188.5,459C 189.406,457.301 189.739,455.467 189.5,453.5 Z"/></g>
<g><path style="opacity:1" fill="#020202" d="M 189.5,463.5 C 192.833,463.5 196.167,463.5 199.5,463.5C 200.833,465.833 200.833,468.167 199.5,470.5C 196.167,470.5 192.833,470.5 189.5,470.5C 189.5,468.167 189.5,465.833 189.5,463.5 Z"/></g>
<g><path style="opacity:1" fill="#020202" d="M 190.5,472.5 C 193.747,473.252 197.081,473.752 200.5,474C 200.302,476.946 199.802,479.779 199,482.5C 196,481.833 193,481.167 190,480.5C 189.278,477.739 189.445,475.073 190.5,472.5 Z"/></g>
<g><path style="opacity:1" fill="#0b0b0b" d="M 173.5,488.5 C 172.833,483.5 172.167,478.5 171.5,473.5C 171.565,471.304 172.232,469.304 173.5,467.5C 173.833,468 174.167,468.5 174.5,469C 173.558,475.453 173.225,481.953 173.5,488.5 Z"/></g>
</svg>
